<?xml version="1.0" encoding="utf-8"?>
<svg xmlns="http://www.w3.org/2000/svg" viewBox="12.6491 16.2325 285.4503 146.151" width="285.45px" height="146.151px" xmlns:bx="https://boxy-svg.com" preserveAspectRatio="none"><defs><bx:export><bx:file format="svg"/></bx:export></defs><g style="" transform="matrix(0.6962110400199889, 0, 0, 0.6836940050125122, -17.960398255598456, -81.48298124918277)" id="object-0"><path d="M 306.808 161.929 C 363.27 155.556 363.27 155.556 376.773 166.347 C 384.698 173.555 386.922 183.804 386.562 194.528 C 386.074 202.398 383.286 209.56 378.499 216.438 C 378.157 216.943 377.814 217.449 377.461 217.97 C 372.227 225.005 362.782 230.98 354.342 233.158 C 350.184 233.803 346.036 234.234 341.874 234.657 C 340.739 234.777 339.604 234.899 338.468 235.02 C 335.707 235.317 332.946 235.601 330.185 235.884 C 330.185 240.501 330.185 245.119 330.185 249.877 C 332.5 250.102 334.814 250.327 337.199 250.559 C 347.97 253.355 354.971 260.778 359.651 269.979 C 361.398 274.214 361.498 278.303 361.502 282.981 C 361.512 283.611 361.521 284.24 361.53 284.888 C 361.557 295.875 357.682 305.299 349.587 314.09 C 345.579 318.117 341.511 321.017 336.42 323.558 C 335.712 323.927 335.005 324.295 334.277 324.677 C 323.096 329.888 309.193 331.005 298.236 327.868 C 287.962 324.438 279.955 317.608 275.735 308.083 C 272.463 298.318 272.805 285.835 277.512 275.676 C 283.009 265.389 291.171 257.867 302.132 253.044 C 304.447 252.418 304.447 252.418 306.808 251.779 C 306.808 222.129 306.808 192.478 306.808 161.929 Z M 330.185 215.999 C 339.092 214.994 346.949 216.143 354.391 210.827 C 354.904 210.346 355.402 209.881 355.901 209.414 C 360.186 205.473 361.887 201.909 362.357 196.646 C 362.501 191.114 362.614 185.958 358.646 182.071 C 352.59 177.383 352.59 177.383 330.185 179.912 C 330.185 192.181 330.185 204.09 330.185 215.999 Z M 303.155 275.851 C 299.231 280.904 297.211 285.167 297.018 291.181 C 297.298 297.403 298.609 302.074 303.544 305.864 C 309.956 309.838 315.151 309.5 323.172 308.114 C 327.976 306.749 331.816 303.256 334.861 299.43 C 338.286 293.507 338.954 287.586 337.978 281.403 C 336.158 276.603 334.019 273.153 329.406 270.586 C 320.619 267.272 310.776 269.295 303.155 275.851 Z" fill="#030303" style="stroke-width: 1; transform-origin: 247.936px 248.296px;" transform="matrix(0.998723, -0.050522, 0.050522, 0.998723, 0.000001, 0)"/><path d="M 139.267 146.228 C 146.725 145.386 154.182 144.544 161.866 143.677 C 162.123 168.438 162.38 193.198 162.645 218.709 C 165.988 213.958 169.331 209.205 172.775 204.309 C 177.647 197.483 177.647 197.483 179.609 194.834 C 182.391 191.045 191.379 177.44 193.815 174.684 C 200.501 173.93 207.187 173.175 214.076 172.397 C 214.333 215.386 214.59 258.374 214.855 302.665 C 217.427 298.973 219.998 295.28 222.648 291.476 C 224.285 289.141 225.924 286.807 227.567 284.476 C 228.423 283.26 229.279 282.044 230.136 280.828 C 230.567 280.217 230.998 279.603 231.443 278.972 C 232.82 277.015 234.193 275.056 235.566 273.098 C 236.021 272.45 236.476 271.802 236.944 271.134 C 237.813 269.896 238.68 268.657 239.548 267.417 C 239.942 266.855 240.337 266.292 240.744 265.713 C 241.087 265.222 241.431 264.731 241.786 264.226 C 243.153 262.337 244.595 260.492 246.026 258.641 C 252.454 257.915 258.883 257.189 265.507 256.442 C 265.507 281.961 265.507 307.48 265.507 333.772 C 258.05 334.613 250.592 335.455 242.909 336.322 C 242.651 322.985 242.394 309.647 242.129 295.905 C 238.786 300.657 235.443 305.408 231.999 310.304 C 226.934 317.505 226.934 317.505 224.438 321.052 C 222.625 323.627 220.816 326.204 219.007 328.782 C 218.307 329.779 218.307 329.779 217.593 330.795 C 216.693 332.079 215.793 333.361 214.893 334.644 C 214.491 335.217 214.089 335.791 213.674 336.38 C 213.318 336.888 212.962 337.395 212.595 337.917 C 211.738 339.105 211.738 339.105 210.959 339.929 C 204.273 340.684 197.587 341.439 190.698 342.216 C 190.698 298.956 190.698 255.695 190.698 211.124 C 182.287 222.847 182.287 222.847 174.011 234.639 C 171.554 238.18 169.072 241.708 166.59 245.238 C 166.156 245.855 165.723 246.47 165.276 247.106 C 164.867 247.688 164.458 248.269 164.036 248.869 C 163.674 249.384 163.311 249.899 162.937 250.43 C 161.814 252.011 160.67 253.579 159.528 255.149 C 152.842 255.903 146.156 256.658 139.267 257.436 C 139.267 220.737 139.267 184.039 139.267 146.228 Z" fill="#030303" style="stroke-width: 1; transform-origin: 247.936px 248.296px;" transform="matrix(0.998723, -0.050522, 0.050522, 0.998723, 0.000001, 0)"/><path d="M 369.928 244.654 C 425.458 238.386 425.458 238.386 437.869 247.756 C 447.068 255.975 449.278 266.248 448.903 278.561 C 448.323 288.757 443.483 297.92 435.748 305.691 C 422.975 317.099 408.183 317.961 392.526 319.433 C 392.526 329.641 392.526 339.848 392.526 350.365 C 385.069 351.207 377.611 352.049 369.928 352.916 C 369.928 317.19 369.928 281.463 369.928 244.654 Z M 392.526 298.812 C 397.322 298.317 397.322 298.317 402.023 297.832 C 403.034 297.731 404.016 297.634 404.997 297.536 C 405.802 297.45 406.584 297.365 407.366 297.28 C 411.36 296.868 414.179 295.963 417.538 293.503 C 422.446 289.113 424.813 284.938 425.52 278.839 C 425.745 271.988 423.72 267.981 419.258 263.24 C 414.464 260.249 414.464 260.249 392.526 262.725 C 392.526 274.994 392.526 286.903 392.526 298.812 Z" fill="#020202" style="stroke-width: 1; transform-origin: 247.936px 248.296px;" transform="matrix(0.998723, -0.050522, 0.050522, 0.998723, 0.000001, 0)"/><path d="M 224.206 171.254 C 231.285 170.404 238.365 169.565 245.444 168.741 C 248.732 168.359 252.02 167.973 255.307 167.576 C 258.485 167.194 261.664 166.821 264.842 166.457 C 266.049 166.317 267.256 166.173 268.464 166.024 C 285.141 163.982 285.141 163.982 291.688 169.125 C 295.823 172.969 296.013 177.032 295.986 182.624 C 295.986 183.249 295.987 183.874 295.987 184.519 C 295.986 186.583 295.98 188.648 295.974 190.713 C 295.973 192.144 295.971 193.578 295.971 195.01 C 295.967 198.778 295.96 202.547 295.951 206.316 C 295.943 210.163 295.94 214.008 295.936 217.855 C 295.928 225.4 295.914 232.945 295.898 240.491 C 289.76 241.218 283.622 241.938 277.484 242.646 C 274.633 242.975 271.782 243.307 268.931 243.646 C 266.173 243.974 263.414 244.294 260.655 244.608 C 259.106 244.788 257.558 244.974 256.009 245.161 C 245.758 246.319 236.985 246.701 229.028 240.97 C 224.362 236.835 222.483 231.644 222.209 225.334 C 222.461 218.475 224.459 212.553 229.71 207.133 C 238.923 199.46 247.593 198.327 258.689 197.326 C 260.11 197.185 261.531 197.041 262.953 196.896 C 266.402 196.547 269.851 196.22 273.3 195.908 C 273.3 192.748 273.3 189.589 273.3 186.334 C 271.84 186.502 270.381 186.67 268.877 186.844 C 264.065 187.399 259.254 187.95 254.442 188.5 C 251.523 188.834 248.605 189.168 245.686 189.506 C 242.872 189.832 240.057 190.153 237.243 190.474 C 236.167 190.596 235.091 190.72 234.016 190.845 C 232.513 191.021 231.011 191.191 229.509 191.36 C 228.653 191.458 227.796 191.557 226.914 191.658 C 224.986 191.788 224.986 191.788 224.206 191.139 C 224.138 189.673 224.123 188.2 224.13 186.725 C 224.132 185.831 224.135 184.936 224.138 184.013 C 224.144 183.071 224.151 182.127 224.157 181.155 C 224.161 180.21 224.164 179.265 224.168 178.291 C 224.178 175.946 224.19 173.601 224.206 171.254 Z M 246.26 218.476 C 246.263 219.102 246.266 219.71 246.269 220.317 C 246.185 223.01 246.721 223.845 248.476 225.807 C 251.332 227.535 251.332 227.535 259.647 226.495 C 260.679 226.347 261.681 226.202 262.682 226.058 C 266.222 225.602 269.759 225.13 273.3 224.63 C 273.3 219.622 273.3 214.762 273.3 209.901 C 270.685 210.125 268.072 210.354 265.456 210.606 C 264.386 210.712 263.315 210.816 262.244 210.918 C 261.188 211.006 260.133 211.094 259.077 211.182 C 258.039 211.288 257.032 211.389 256.025 211.491 C 251.171 211.938 247.674 213.54 246.26 218.476 Z" fill="#040404" style="stroke-width: 1; transform-origin: 247.936px 248.296px;" transform="matrix(0.998723, -0.050522, 0.050522, 0.998723, 0.000001, 0)"/><path d="M 120.355 190.345 C 125.563 193.92 130.946 198.802 132.254 205.201 C 127.358 207.927 122.415 210.522 117.399 212.999 C 116.889 213.254 116.378 213.508 115.853 213.768 C 112.182 215.568 112.182 215.568 110.435 215.766 C 110.207 215.355 109.98 214.945 109.747 214.522 C 107.146 210.078 104.907 207.064 99.345 205.892 C 93.039 205.189 85.442 205.501 79.715 209.454 C 75.875 212.825 72.955 216.805 72.251 221.549 C 71.705 228.47 71.255 235.195 76.147 240.257 C 81.95 244.354 86.874 244.486 94.408 243.622 C 97.854 242.898 100.061 241.65 102.898 239.515 C 104.201 238.563 108.509 233.221 109.655 231.32 C 114.821 231.711 129.836 235.078 131.475 235.484 C 130.536 241.811 125.989 247.958 120.897 252.421 C 111.838 259.178 102.417 263.498 91.489 264.623 C 90.704 264.708 89.918 264.793 89.11 264.879 C 82.99 265.449 77.903 265.216 72.251 263.528 C 71.693 263.387 71.136 263.245 70.562 263.099 C 60.561 260.134 53.684 253.035 49.75 244.111 C 45.865 234.568 45.902 223.263 50.432 212.965 C 56 201.478 64.038 194 76.001 188.398 C 90.744 182.829 107.992 183.164 120.355 190.345 Z" fill="#020202" style="stroke-width: 1; transform-origin: 247.936px 248.296px;" transform="matrix(0.998723, -0.050522, 0.050522, 0.998723, 0.000001, 0)"/><path d="M 162.645 270.263 C 163.268 270.45 163.893 270.638 164.535 270.832 C 172.133 273.546 178.985 278.967 182.906 285.651 C 183.191 287.088 183.454 288.531 183.685 289.982 C 180.489 291.576 177.29 293.162 174.09 294.747 C 173.181 295.202 172.271 295.655 171.334 296.122 C 170.463 296.553 169.591 296.984 168.693 297.427 C 167.889 297.827 167.085 298.226 166.257 298.638 C 164.204 299.546 164.204 299.546 161.866 299.81 C 161.56 299.069 161.255 298.329 160.94 297.566 C 158.87 293.328 155.512 291.11 150.795 289.814 C 145.157 289.056 138.522 289.563 133.228 292.686 C 132.392 293.281 126.386 299.34 125.965 300.081 C 122.849 306.039 122.759 311.995 124.169 317.966 C 125.833 322.383 128.667 325.275 133.033 327.368 C 138.68 328.951 145.458 328.393 151.379 326.289 C 155.207 324.227 157.984 321.197 160.307 317.661 C 160.693 316.523 160.693 316.523 161.086 315.364 C 166.198 315.213 170.673 316.308 175.454 317.47 C 176.247 317.657 177.04 317.846 177.857 318.04 C 179.801 318.502 181.744 318.969 183.685 319.441 C 182.277 326.923 176.404 333.371 170.221 338.409 C 165.179 342.059 159.847 344.257 154.073 346.351 C 153.585 346.535 153.096 346.72 152.593 346.91 C 141.731 350.42 129.22 350.017 119.591 346.054 C 109.92 341.143 102.285 333.926 99.872 323.26 C 98.127 311.089 99.519 299.514 107.318 288.291 C 119.799 271.865 144.403 264.58 162.645 270.263 Z" fill="#020202" style="stroke-width: 1; transform-origin: 247.936px 248.296px;" transform="matrix(0.998723, -0.050522, 0.050522, 0.998723, 0.000001, 0)"/></g></svg>
