<?xml version="1.0" encoding="utf-8"?>
<svg xmlns="http://www.w3.org/2000/svg" viewBox="0 0 500 500" xmlns:bx="https://boxy-svg.com" width="500px" height="500px"><defs><bx:export><bx:file format="svg"/></bx:export></defs><path d="M 306.096 179.963 C 362.558 179.963 362.558 179.963 376.061 192.279 C 383.986 200.381 386.21 210.881 385.85 221.565 C 385.362 229.379 382.574 236.227 377.787 242.564 C 377.445 243.031 377.102 243.498 376.749 243.979 C 371.515 250.423 362.07 255.332 353.63 256.557 C 349.472 256.733 345.324 256.696 341.162 256.649 C 340.027 256.641 338.892 256.635 337.756 256.628 C 334.995 256.613 332.234 256.585 329.473 256.557 C 329.473 261.174 329.473 265.792 329.473 270.55 C 331.788 271.036 334.102 271.522 336.487 272.023 C 347.258 276.035 354.259 284.248 358.939 293.978 C 360.686 298.41 360.786 302.51 360.79 307.189 C 360.8 307.82 360.809 308.45 360.818 309.099 C 360.845 320.089 356.97 329.075 348.875 336.953 C 344.867 340.527 340.799 342.968 335.708 344.934 C 335 345.223 334.293 345.512 333.565 345.811 C 322.384 349.76 308.481 349.308 297.524 344.934 C 287.25 340.344 279.243 332.61 275.023 322.609 C 271.751 312.475 272.093 300.03 276.8 290.403 C 282.297 280.736 290.459 274.135 301.42 270.55 C 303.735 270.185 303.735 270.185 306.096 269.813 C 306.096 240.163 306.096 210.512 306.096 179.963 Z M 329.473 236.672 C 338.38 236.672 346.237 238.708 353.679 234.232 C 354.192 233.809 354.69 233.4 355.189 232.989 C 359.474 229.532 361.175 226.16 361.645 220.95 C 361.789 215.434 361.902 210.291 357.934 205.956 C 351.878 200.585 351.878 200.585 329.473 200.585 C 329.473 212.854 329.473 224.763 329.473 236.672 Z M 302.443 293.472 C 298.519 298.082 296.499 302.117 296.306 308.11 C 296.586 314.363 297.897 319.182 302.832 323.529 C 309.244 328.227 314.439 328.475 322.46 327.995 C 327.264 327.172 331.104 324.113 334.149 320.63 C 337.574 315.094 338.242 309.248 337.266 302.955 C 335.446 297.95 333.307 294.258 328.694 291.171 C 319.907 286.865 310.064 287.777 302.443 293.472 Z" fill="#030303" style="stroke-width: 1;"/><path d="M 138.555 145.349 C 146.013 145.349 153.47 145.349 161.154 145.349 C 161.411 170.139 161.668 194.928 161.933 220.469 C 165.276 216.095 168.619 211.72 172.063 207.213 C 176.935 200.937 176.935 200.937 178.897 198.509 C 181.679 195.034 190.667 182.444 193.103 179.963 C 199.789 179.963 206.475 179.963 213.364 179.963 C 213.621 222.981 213.878 265.998 214.143 310.319 C 216.715 306.917 219.286 303.514 221.936 300.009 C 223.573 297.859 225.212 295.71 226.855 293.565 C 227.711 292.445 228.567 291.326 229.424 290.207 C 229.855 289.644 230.286 289.079 230.731 288.498 C 232.108 286.697 233.481 284.893 234.854 283.09 C 235.309 282.493 235.764 281.896 236.232 281.281 C 237.101 280.141 237.968 279 238.836 277.858 C 239.23 277.341 239.625 276.822 240.032 276.289 C 240.375 275.837 240.719 275.385 241.074 274.92 C 242.441 273.185 243.883 271.503 245.314 269.813 C 251.742 269.813 258.171 269.813 264.795 269.813 C 264.795 295.332 264.795 320.851 264.795 347.143 C 257.338 347.143 249.88 347.143 242.197 347.143 C 241.939 333.776 241.682 320.409 241.417 306.637 C 238.074 311.012 234.731 315.386 231.287 319.893 C 226.222 326.522 226.222 326.522 223.726 329.787 C 221.913 332.158 220.104 334.531 218.295 336.904 C 217.595 337.822 217.595 337.822 216.881 338.758 C 215.981 339.94 215.081 341.121 214.181 342.302 C 213.779 342.83 213.377 343.358 212.962 343.9 C 212.606 344.368 212.25 344.835 211.883 345.316 C 211.026 346.407 211.026 346.407 210.247 347.143 C 203.561 347.143 196.875 347.143 189.986 347.143 C 189.986 303.883 189.986 260.622 189.986 216.051 C 181.575 226.824 181.575 226.824 173.299 237.682 C 170.842 240.946 168.36 244.194 165.878 247.443 C 165.444 248.011 165.011 248.578 164.564 249.163 C 164.155 249.699 163.746 250.234 163.324 250.786 C 162.962 251.26 162.599 251.734 162.225 252.223 C 161.102 253.677 159.958 255.116 158.816 256.557 C 152.13 256.557 145.444 256.557 138.555 256.557 C 138.555 219.858 138.555 183.16 138.555 145.349 Z" fill="#030303" style="stroke-width: 1;"/><path d="M 369.216 269.813 C 424.746 269.813 424.746 269.813 437.157 280.584 C 446.356 289.842 448.566 300.364 448.191 312.635 C 447.611 322.765 442.771 331.382 435.036 338.28 C 422.263 348.246 407.471 347.438 391.814 347.143 C 391.814 357.351 391.814 367.558 391.814 378.075 C 384.357 378.075 376.899 378.075 369.216 378.075 C 369.216 342.349 369.216 306.622 369.216 269.813 Z M 391.814 326.522 C 396.61 326.568 396.61 326.568 401.311 326.614 C 402.322 326.627 403.304 326.641 404.285 326.654 C 405.09 326.658 405.872 326.662 406.654 326.665 C 410.648 326.704 413.467 326.117 416.826 324.036 C 421.734 320.2 424.101 316.292 424.808 310.273 C 425.033 303.448 423.008 299.212 418.546 293.967 C 413.752 290.435 413.752 290.435 391.814 290.435 C 391.814 302.704 391.814 314.613 391.814 326.522 Z" fill="#020202" style="stroke-width: 1;"/><path d="M 223.494 179.963 C 230.573 179.912 237.653 179.873 244.732 179.848 C 248.02 179.837 251.308 179.822 254.595 179.796 C 257.773 179.773 260.952 179.759 264.13 179.753 C 265.337 179.75 266.544 179.742 267.752 179.729 C 284.429 179.57 284.429 179.57 290.976 185.452 C 295.111 189.763 295.301 193.847 295.274 199.436 C 295.274 200.061 295.275 200.686 295.275 201.331 C 295.274 203.395 295.268 205.459 295.262 207.524 C 295.261 208.955 295.259 210.388 295.259 211.82 C 295.255 215.588 295.248 219.356 295.239 223.124 C 295.231 226.97 295.228 230.815 295.224 234.661 C 295.216 242.205 295.202 249.749 295.186 257.293 C 289.048 257.327 282.91 257.354 276.772 257.369 C 273.921 257.377 271.07 257.387 268.219 257.404 C 265.461 257.421 262.702 257.429 259.943 257.432 C 258.394 257.437 256.846 257.448 255.297 257.46 C 245.046 257.461 236.273 256.853 228.316 250.224 C 223.65 245.562 221.771 240.159 221.497 233.818 C 221.749 226.987 223.747 221.291 228.998 216.464 C 238.211 209.831 246.881 209.676 257.977 209.928 C 259.398 209.947 260.819 209.964 262.241 209.979 C 265.69 210.019 269.139 210.082 272.588 210.159 C 272.588 206.999 272.588 203.84 272.588 200.585 C 271.128 200.588 269.669 200.592 268.165 200.596 C 263.353 200.608 258.542 200.616 253.73 200.622 C 250.811 200.627 247.893 200.632 244.974 200.64 C 242.16 200.648 239.345 200.652 236.531 200.655 C 235.455 200.655 234.379 200.658 233.304 200.662 C 231.801 200.668 230.299 200.668 228.797 200.668 C 227.941 200.669 227.084 200.672 226.202 200.673 C 224.274 200.585 224.274 200.585 223.494 199.848 C 223.426 198.375 223.411 196.9 223.418 195.426 C 223.42 194.532 223.423 193.637 223.426 192.715 C 223.432 191.773 223.439 190.83 223.445 189.859 C 223.449 188.914 223.452 187.97 223.456 186.996 C 223.466 184.652 223.478 182.308 223.494 179.963 Z M 245.548 229.675 C 245.551 230.301 245.554 230.909 245.557 231.517 C 245.473 234.2 246.009 235.096 247.764 237.256 C 250.62 239.306 250.62 239.306 258.935 239.205 C 259.967 239.173 260.969 239.142 261.97 239.111 C 265.51 239.054 269.047 238.981 272.588 238.881 C 272.588 233.873 272.588 229.013 272.588 224.152 C 269.973 224.081 267.36 224.015 264.744 223.972 C 263.674 223.957 262.603 223.94 261.532 223.921 C 260.476 223.89 259.421 223.859 258.365 223.828 C 257.327 223.816 256.32 223.804 255.313 223.792 C 250.459 223.691 246.962 224.898 245.548 229.675 Z" fill="#040404" style="stroke-width: 1;"/><path d="M 119.643 187.331 C 124.851 191.494 130.234 196.984 131.542 203.53 C 126.646 205.704 121.703 207.741 116.687 209.652 C 116.177 209.849 115.666 210.045 115.141 210.246 C 111.47 211.632 111.47 211.632 109.723 211.632 C 109.495 211.196 109.268 210.76 109.035 210.311 C 106.434 205.573 104.195 202.306 98.633 200.507 C 92.327 199.092 84.73 198.546 79.003 201.853 C 75.163 204.79 72.243 208.441 71.539 213.105 C 70.993 219.965 70.543 226.639 75.435 232.253 C 81.238 237.005 86.162 237.693 93.696 237.679 C 97.142 237.344 99.349 236.345 102.186 234.531 C 103.489 233.726 107.797 228.87 108.943 227.098 C 114.109 228.073 129.124 233.135 130.763 233.726 C 129.824 239.947 125.277 245.58 120.185 249.468 C 111.126 255.203 101.705 258.459 90.777 258.351 C 89.992 258.347 89.206 258.343 88.398 258.338 C 82.278 258.217 77.191 257.41 71.539 255.084 C 70.981 254.88 70.424 254.675 69.85 254.465 C 59.849 250.371 52.972 242.495 49.038 233.127 C 45.153 223.146 45.19 211.845 49.72 202.058 C 55.288 191.2 63.326 184.629 75.289 180.377 C 90.032 176.473 107.28 178.755 119.643 187.331 Z" fill="#020202" style="stroke-width: 1;"/><path d="M 161.933 272.023 C 162.556 272.28 163.181 272.539 163.823 272.805 C 171.421 276.377 178.273 282.572 182.194 289.698 C 182.479 291.167 182.742 292.64 182.973 294.117 C 179.777 295.35 176.578 296.575 173.378 297.799 C 172.469 298.151 171.559 298.502 170.622 298.863 C 169.751 299.196 168.879 299.528 167.981 299.87 C 167.177 300.179 166.373 300.487 165.545 300.806 C 163.492 301.482 163.492 301.482 161.154 301.482 C 160.848 300.707 160.543 299.932 160.228 299.134 C 158.158 294.662 154.8 292.065 150.083 290.236 C 144.445 288.842 137.81 288.6 132.516 291.125 C 131.68 291.626 125.674 297.007 125.253 297.701 C 122.137 303.307 122.047 309.253 123.457 315.383 C 125.121 319.988 127.955 323.2 132.321 325.785 C 137.968 328.006 144.746 328.213 150.667 326.777 C 154.495 325.147 157.272 322.431 159.595 319.157 C 159.981 318.063 159.981 318.063 160.374 316.948 C 165.486 317.374 169.961 318.974 174.742 320.676 C 175.535 320.953 176.328 321.231 177.145 321.517 C 179.089 322.199 181.032 322.885 182.973 323.576 C 181.565 330.899 175.692 336.684 169.509 341.024 C 164.467 344.105 159.135 345.701 153.361 347.143 C 152.873 347.272 152.384 347.402 151.881 347.535 C 141.019 349.819 128.508 348.004 118.879 342.954 C 109.208 336.951 101.573 328.872 99.16 317.934 C 97.415 305.566 98.807 294.148 106.606 283.806 C 119.087 268.789 143.691 264.281 161.933 272.023 Z" fill="#020202" style="stroke-width: 1;"/></svg>